<?xml version="1.0" encoding="UTF-8" standalone="no"?>
<!-- Created with Inkscape (http://www.inkscape.org/) -->

<svg
   xmlns:dc="http://purl.org/dc/elements/1.1/"
   xmlns:cc="http://creativecommons.org/ns#"
   xmlns:rdf="http://www.w3.org/1999/02/22-rdf-syntax-ns#"
   xmlns:svg="http://www.w3.org/2000/svg"
   xmlns="http://www.w3.org/2000/svg"
   xmlns:xlink="http://www.w3.org/1999/xlink"
   version="1.0"
   width="55"
   height="55"
   id="svg2">
  <metadata
     id="metadata3027">
    <rdf:RDF>
      <cc:Work
         rdf:about="">
        <dc:format>image/svg+xml</dc:format>
        <dc:type
           rdf:resource="http://purl.org/dc/dcmitype/StillImage" />
        <dc:title></dc:title>
      </cc:Work>
    </rdf:RDF>
  </metadata>
  <defs
     id="defs4">
    <radialGradient
       cx="32.004715"
       cy="38.321983"
       r="25.510496"
       fx="32.004715"
       fy="38.321983"
       id="radialGradient3844"
       xlink:href="#linearGradient3838"
       gradientUnits="userSpaceOnUse"
       gradientTransform="matrix(1,0,0,1.090071,0,-3.4517012)" />
    <linearGradient
       id="linearGradient3838">
      <stop
         id="stop3840"
         style="stop-color:#d1d29c;stop-opacity:1"
         offset="0" />
      <stop
         id="stop3842"
         style="stop-color:#a09049;stop-opacity:1"
         offset="1" />
    </linearGradient>
  </defs>
  <path
     d="m 22.14499,52.5 14.71002,0 -7.300529,-12.217131 z"
     id="path4692"
     style="fill:#ffffff;fill-opacity:1;stroke:#000000;stroke-width:1;stroke-linecap:butt;stroke-linejoin:miter;stroke-miterlimit:4;stroke-opacity:1;stroke-dasharray:none" />
  <g
     transform="matrix(0.07892226,0,0,0.07892226,1.800638,17.20935)"
     id="g3780"
     style="fill:#e0e0e0;fill-opacity:1;stroke:#000000;stroke-width:8.49186516;stroke-linecap:round;stroke-miterlimit:4;stroke-opacity:1;stroke-dasharray:none">
    <path
       d="M 4.1087637,146.44389 C -0.75703963,115.59864 11.693511,79.184564 35.017336,58.421503 54.836816,40.778038 88.97911,43.140007 115.16393,36.852459 c 14.60052,-3.505903 41.69612,-9.160009 56.36319,-5.943886 26.1863,5.742001 40.57897,17.940181 58.80075,41.644705 10.04918,13.072873 15.21527,35.519472 17.24495,51.883042 5.29555,42.6934 -41.79291,122.61605 -51.32597,130.72983 -12.28666,10.45741 -41.75796,13.39758 -59.7292,21.53939 -9.74377,4.41439 -45.526864,-2.47928 -55.564177,-6.17796 C 61.941525,263.52181 12.745319,201.19265 4.1087637,146.44389 z"
       id="path2987-5"
       style="fill:#e0e0e0;fill-opacity:1;stroke:#000000;stroke-width:8.49186516;stroke-linecap:round;stroke-linejoin:miter;stroke-miterlimit:4;stroke-opacity:1;stroke-dasharray:none" />
    <path
       d="m 77.158017,62.468583 c 0,0 22.540272,8.763792 34.347763,8.960286 17.02481,0.283318 48.78378,-11.947048 48.78378,-11.947048"
       id="path3757"
       style="fill:#e0e0e0;fill-opacity:1;stroke:#000000;stroke-width:8.49186516;stroke-linecap:round;stroke-linejoin:miter;stroke-miterlimit:4;stroke-opacity:1;stroke-dasharray:none" />
    <path
       d="m 112.99916,70.433282 c 0,0 10.10196,-56.837612 28.87204,-68.1977314 4.19192,-2.53705863 10.51461,2.7130965 12.94263,6.9691112 2.05721,3.6060532 2.85697,9.9991662 -0.49779,12.4448422 -2.50489,1.8261 -6.95439,-4.852319 -8.96029,-2.488969 -6.24247,7.354847 -18.41837,47.788191 -18.41837,47.788191"
       id="path3759"
       style="fill:#e0e0e0;fill-opacity:1;stroke:#000000;stroke-width:8.49186516;stroke-linecap:round;stroke-linejoin:miter;stroke-miterlimit:4;stroke-opacity:1;stroke-dasharray:none" />
  </g>
  <g
     transform="matrix(0.07677175,0,0,0.07677175,27.816931,9.5991259)"
     id="g3793"
     style="stroke-width:7.73337317;stroke-miterlimit:4;stroke-dasharray:none">
    <path
       d="m 12.492955,169.42623 c 25.131531,-12.0997 90.578215,-9.41548 121.769345,-10.65574 35.7774,-1.42262 74.27633,-1.53204 103.45863,-22.27907 17.47887,-12.42653 49.56887,-47.453631 57.49199,-77.033651 3.98997,-14.896083 -1.62928,-24.252959 -5.37685,-39.211867 -5.14351,-20.53101132 20.52399,-19.25153267 30.09941,-16.540888 8.60686,2.4364619 -3.58452,20.898015 -2.70683,25.445215 2.97854,15.431491 2.48825,29.169798 6.70578,35.849771 3.88508,6.153427 15.28106,6.64746 17.70444,15.622279 9.55187,35.374641 -10.40811,80.200091 -30.90164,110.574731 -21.02806,31.16688 -78.24059,55.29145 -123.55758,63.16279 C 168.60762,257.58566 60.238798,247.85106 39.426229,234.42623 31.67892,229.42895 18.578606,212.81151 10.196434,203.16326 1.9604627,193.6833 1.1781426,174.8738 12.492955,169.42623 z"
       id="path2987"
       style="fill:#eeeeee;fill-opacity:1;stroke:#000000;stroke-width:7.73337317;stroke-linecap:butt;stroke-linejoin:miter;stroke-miterlimit:4;stroke-opacity:1;stroke-dasharray:none" />
    <path
       d="m 289.21856,18.560959 c 1.40774,3.272105 11.33615,0.540011 14.74048,-0.508292 5.88758,-1.812975 16.98934,-3.62167 15.75708,-9.6575619 -0.92505,-4.5311003 -13.89293,-5.472511 -18.29853,-4.0663417 -5.59369,1.7853818 -14.51954,8.8384826 -12.19903,14.2321956 z"
       id="path3759-7"
       style="fill:#000000;fill-opacity:1;stroke:#000000;stroke-width:7.73337317;stroke-linecap:butt;stroke-linejoin:miter;stroke-miterlimit:4;stroke-opacity:1;stroke-dasharray:none" />
    <path
       d="m 14.232196,183.2478 c -0.550401,4.44234 -2.357001,13.09359 -6.6078052,11.69073 -7.8629093,-2.59494 -5.2085859,-24.05314 3.0497562,-24.65219 4.468577,-0.32415 4.108942,8.51514 3.558049,12.96146 z"
       id="path3757-8"
       style="fill:#000000;fill-opacity:1;stroke:#000000;stroke-width:7.73337317;stroke-linecap:butt;stroke-linejoin:miter;stroke-miterlimit:4;stroke-opacity:1;stroke-dasharray:none" />
    <path
       d="m 12.492955,169.42623 c 25.131531,-12.0997 90.578215,-9.41548 121.769345,-10.65574 35.7774,-1.42262 74.27633,-1.53204 103.45863,-22.27907 17.47887,-12.42653 49.56887,-47.453629 57.49199,-77.033649 3.98997,-14.89608 -1.62928,-24.25296 -5.37685,-39.21187 -5.14351,-20.53100972 20.52399,-19.25152972 30.09941,-16.5408897 8.60686,2.43647 -3.58452,20.8980197 -2.70683,25.4452197 2.97854,15.43149 2.48825,29.1698 6.70578,35.84977 3.88508,6.15343 15.28106,6.64746 17.70444,15.62228 9.55187,35.374639 -10.40811,80.200089 -30.90164,110.574729 -21.02806,31.16688 -78.24059,55.29145 -123.55758,63.16279 C 168.60762,257.58566 60.238798,247.85106 39.426229,234.42623 31.67892,229.42895 18.578606,212.81151 10.196434,203.16326 1.9604625,193.6833 1.1781425,174.8738 12.492955,169.42623 z"
       id="path2987-2"
       style="fill:none;stroke:#000000;stroke-width:7.73337317;stroke-linecap:butt;stroke-linejoin:miter;stroke-miterlimit:4;stroke-opacity:1;stroke-dasharray:none" />
  </g>
  <rect
     width="47.222221"
     height="4.4444447"
     x="-8.3835573"
     y="41.757477"
     transform="matrix(0.94806242,-0.31808435,0.31808435,0.94806242,0,0)"
     id="rect2997"
     style="fill:#ffffff;fill-opacity:1;stroke:#000000;stroke-width:1;stroke-linecap:round;stroke-linejoin:round;stroke-miterlimit:4;stroke-opacity:1;stroke-dasharray:none" />
</svg>
