<?xml version="1.0" encoding="UTF-8" standalone="no"?>
<!-- Created with Inkscape (http://www.inkscape.org/) -->

<svg
   xmlns:dc="http://purl.org/dc/elements/1.1/"
   xmlns:cc="http://creativecommons.org/ns#"
   xmlns:rdf="http://www.w3.org/1999/02/22-rdf-syntax-ns#"
   xmlns:svg="http://www.w3.org/2000/svg"
   xmlns="http://www.w3.org/2000/svg"
   version="1.0"
   width="55"
   height="55"
   id="svg2">
  <metadata
     id="metadata3060">
    <rdf:RDF>
      <cc:Work
         rdf:about="">
        <dc:format>image/svg+xml</dc:format>
        <dc:type
           rdf:resource="http://purl.org/dc/dcmitype/StillImage" />
        <dc:title></dc:title>
      </cc:Work>
    </rdf:RDF>
  </metadata>
  <defs
     id="defs4" />
  <path
     d="M 6.3975494,20.851694 C 6.3198194,18.594856 4.7003721,15.986316 5.9314477,14.09322 7.4185401,11.806433 11.060096,12.233008 13.622126,11.29661 17.430906,9.9045371 20.99692,6.8099737 25.041617,7.1016948 c 7.48858,0.5401088 15.299065,4.7179942 19.809322,10.7203382 3.295192,4.38531 2.178541,10.755646 3.495763,16.080509 0.348494,1.408786 1.32165,2.752117 1.165254,4.194915 -0.161033,1.485572 -1.028634,2.917609 -2.097458,3.961865 -1.242482,1.213923 -3.027453,1.739881 -4.661017,2.330508 -4.802234,1.736283 -9.818505,3.810846 -14.915254,3.495763 C 22.465844,47.55347 16.963946,45.564302 12.689922,42.292372 9.8145041,40.091129 7.4983744,36.886322 6.3975494,33.43644 c -1.2752114,-3.996392 0.1443951,-8.392317 0,-12.584746 z"
     id="path3858"
     style="fill:#d0d0d0;fill-opacity:1;stroke:#000000;stroke-width:1px;stroke-linecap:butt;stroke-linejoin:miter;stroke-opacity:1" />
  <text
     x="19.712891"
     y="36.40625"
     id="text2985"
     xml:space="preserve"
     style="font-size:11px;font-style:normal;font-weight:normal;line-height:125%;letter-spacing:0px;word-spacing:0px;fill:#000000;fill-opacity:1;stroke:none;font-family:Sans"><tspan
       x="19.712891"
       y="36.40625"
       id="tspan2987"
       style="font-size:18px;font-weight:bold;-inkscape-font-specification:Sans Bold"><tspan
         id="tspan3860"
         style="font-size:24px">? </tspan></tspan></text>
  <path
     d="M 24.560875,47.651744 C 16.156613,45.70529 9.0488635,39.370955 6.5024315,31.558293 c -0.797701,-2.447412 -0.916713,-3.303585 -0.907877,-6.53125 0.0062,-2.247683 0.0612,-3.163476 0.229644,-3.820826 l 0.22155,-0.864576 -0.384866,-0.854174 c -1.036115,-2.299564 -0.910426,-4.211994 0.387987,-5.903444 1.204932,-1.569671 2.994742,-2.488354 5.2132605,-2.675887 0.938945,-0.07937 1.096997,-0.141641 2.137867,-0.842292 2.616815,-1.7614813 6.292286,-3.0513012 8.694996,-3.0513012 1.314453,0 1.334395,0.1955838 0.02447,0.2400212 -0.547526,0.018574 -1.335817,0.1248193 -1.751754,0.2361007 -0.635271,0.169962 -0.668265,0.192413 -0.20625,0.140343 0.697837,-0.07865 0.242894,0.131855 -0.55,0.254485 -0.381986,0.05908 -0.465993,0.047 -0.275,-0.03953 0.322718,-0.146211 0.138674,-0.177296 -0.320998,-0.05422 -0.198313,0.0531 -0.261211,0.1229 -0.164568,0.182628 0.133886,0.08275 -0.256248,0.242394 -1.851934,0.757832 -0.191485,0.06185 -0.170607,0.02479 0.06875,-0.122044 0.189063,-0.115982 0.281875,-0.212178 0.20625,-0.213771 -0.198587,-0.0042 -2.83663,1.2950106 -3.1625,1.5574786 -0.15125,0.1218227 0.331918,-0.09418 1.073706,-0.4800006 0.741789,-0.385824 1.379971,-0.670234 1.41818,-0.632023 0.03821,0.03821 -0.289027,0.233602 -0.727197,0.434203 -0.43817,0.2006 -1.396163,0.7638243 -2.128874,1.2516103 -1.4869,0.989869 -1.930557,1.176984 -0.812114,0.342514 0.40129,-0.299402 0.768246,-0.58776 0.815459,-0.640794 0.153722,-0.172681 -0.314754,0.122055 -0.827697,0.520736 -0.368109,0.286109 -0.659945,0.391528 -1.1,0.39735 -0.687331,0.0091 -1.8372929,0.221553 -1.423963,0.263082 0.233893,0.0235 0.223617,0.04308 -0.06875,0.130998 -0.8112395,0.243945 -1.1743725,0.297958 -0.9624995,0.143166 0.161561,-0.118035 0.131768,-0.130062 -0.1375,-0.05551 -1.086173,0.300736 -2.42269,1.322669 -3.145554,2.405166 -0.31182,0.466955 -0.566365,0.919302 -0.565656,1.005216 7.15e-4,0.08591 0.179559,-0.154583 0.397444,-0.534436 0.217884,-0.379853 0.664483,-0.958972 0.992442,-1.286931 0.56632,-0.56632 1.81976,-1.389016 2.115074,-1.38823 0.07562,2.06e-4 -0.123217,0.149441 -0.44187,0.331645 -1.523524,0.871138 -2.635,2.161216 -2.933294,3.404643 -0.138062,0.57551 -0.195744,0.66854 -0.280296,0.452072 -0.07045,-0.18036 -0.109731,-0.0024 -0.116126,0.526183 -0.0053,0.439307 0.04573,0.764506 0.113428,0.722665 0.135001,-0.08344 0.288446,0.225849 0.291087,0.586716 9.21e-4,0.126158 0.211037,0.70891 0.46692,1.295004 0.523178,1.198327 0.533563,1.395836 0.02169,0.4125 -0.186991,-0.359219 -0.342865,-0.612863 -0.346386,-0.563653 -0.01353,0.189083 0.64472,1.482323 0.717465,1.409577 0.04219,-0.04219 0.01694,0.189309 -0.05611,0.514446 -0.173411,0.771797 -0.300962,0.888815 -0.203293,0.186505 0.06114,-0.439612 0.03399,-0.398216 -0.135265,0.20625 -0.29983,1.070799 -0.4126,4.976409 -0.188994,6.545478 0.11863,0.832442 0.206691,1.135412 0.275623,0.948273 0.08337,-0.226346 0.119288,-0.182638 0.20299,0.247037 0.05593,0.287119 0.06333,0.5604 0.01644,0.60729 -0.04689,0.04689 -0.08526,-0.05912 -0.08526,-0.235577 0,-0.176458 -0.03791,-0.282923 -0.08424,-0.236588 -0.04633,0.04633 -0.0076,0.403539 0.08597,0.793789 0.09452,0.393994 0.213794,0.639035 0.268204,0.550998 0.05423,-0.08775 0.264305,0.352732 0.470458,0.986475 1.554856,4.779826 5.4545655,9.590403 10.1274875,12.492997 1.560634,0.969391 3.60904,1.935969 5.360316,2.529364 0.792307,0.268462 1.223993,0.455713 0.959306,0.416111 -0.625092,-0.09352 -0.140137,0.131247 0.55,0.254917 0.351574,0.063 0.40715,0.05189 0.20625,-0.04125 -0.378066,-0.175265 -0.20749,-0.173665 0.629839,0.0059 0.424067,0.09094 0.644247,0.194675 0.54432,0.256433 -0.166849,0.103118 1.585014,0.417798 2.303333,0.413738 0.302514,-0.0017 0.333754,-0.02998 0.166258,-0.150472 -0.171533,-0.123391 -0.163855,-0.134608 0.04562,-0.06664 0.138529,0.04495 0.355091,0.08267 0.48125,0.08383 0.198344,0.0018 0.201473,0.02014 0.02313,0.135395 -0.372893,0.240982 -2.478659,0.133367 -3.919335,-0.20029 z m 0.516211,-0.303264 c -0.09453,-0.03814 -0.249219,-0.03814 -0.34375,0 -0.09453,0.03814 -0.01719,0.06935 0.171875,0.06935 0.189063,0 0.266406,-0.03121 0.171875,-0.06935 z m -2.509375,-0.665187 c -0.627784,-0.241758 -0.874783,-0.23819 -0.34375,0.005 0.226875,0.103885 0.505313,0.186964 0.61875,0.184622 0.113437,-0.0023 -0.01031,-0.08766 -0.275,-0.189587 z m -0.9625,-0.331299 c -0.113437,-0.06418 -0.360938,-0.154495 -0.55,-0.200705 -0.286529,-0.07003 -0.275085,-0.05095 0.06875,0.114665 0.44065,0.212244 0.826143,0.281165 0.48125,0.08604 z m -1.65,-0.699951 c -0.415937,-0.219739 -0.818125,-0.399525 -0.89375,-0.399525 -0.07563,0 0.202813,0.179786 0.61875,0.399525 0.415937,0.219739 0.818125,0.399526 0.89375,0.399526 0.07563,0 -0.202812,-0.179787 -0.61875,-0.399526 z m -1.2375,-0.560216 c -0.113437,-0.07235 -0.732187,-0.443281 -1.375,-0.824291 -3.019446,-1.7897 -5.834039,-4.464407 -7.7671475,-7.381118 -0.363384,-0.548281 -0.68621,-0.996875 -0.71739,-0.996875 -0.07891,0 0.02717,0.171936 0.9755816,1.58125 1.0228239,1.519893 4.0845249,4.618065 5.6852169,5.752937 1.064633,0.754814 3.174096,2.025543 3.33291,2.007727 0.03964,-0.0044 -0.02073,-0.06728 -0.134171,-0.13963 z M 8.1697195,34.451215 c -0.355402,-0.715455 -0.668231,-1.278782 -0.695177,-1.251836 -0.06098,0.06098 1.183463,2.552664 1.274896,2.552664 0.03656,0 -0.224317,-0.585373 -0.579719,-1.300828 z m -0.847723,-1.816984 c -0.162091,-0.278742 -0.201233,-0.189524 -0.06855,0.156246 0.04716,0.122884 0.114701,0.194461 0.150103,0.159059 0.0354,-0.0354 -0.0013,-0.17729 -0.081553,-0.315305 z M 6.9023225,31.47852 c -0.145485,-0.409874 -0.269039,-0.678905 -0.274564,-0.597846 -0.01415,0.207651 0.42209,1.460066 0.486232,1.395923 0.02907,-0.02907 -0.06618,-0.388202 -0.211668,-0.798077 z M 5.6668805,18.41263 c -0.07246,-0.181136 -0.13566,-0.257055 -0.140453,-0.168709 -0.01164,0.214585 0.148531,0.621707 0.217474,0.552764 0.0301,-0.03009 -0.0046,-0.202919 -0.077021,-0.384055 z m -0.195605,-0.844963 c -0.03815,-0.09453 -0.06935,-0.01719 -0.06935,0.171875 0,0.189063 0.03121,0.266406 0.06935,0.171875 0.03814,-0.09453 0.03814,-0.249219 0,-0.34375 z m -0.008,-2.265885 c -0.04569,-0.04569 -0.07819,0.03552 -0.07222,0.180468 0.0066,0.16018 0.03918,0.192762 0.08307,0.08307 0.03972,-0.09926 0.03484,-0.217851 -0.01085,-0.263538 z m 4.4802066,-3.843668 c -0.09926,-0.03972 -0.217851,-0.03484 -0.263541,0.01086 -0.04569,0.04569 0.03552,0.07819 0.180468,0.07222 0.1601799,-0.0066 0.1927619,-0.03918 0.08307,-0.08307 z M 18.167701,8.1832927 c 0.264688,-0.101931 0.388438,-0.187245 0.275,-0.189587 -0.113437,-0.0023 -0.391875,0.08074 -0.61875,0.184621 -0.531033,0.243156 -0.284034,0.246725 0.34375,0.005 z m 12.925,39.6641963 c -0.14853,-0.09927 -0.07157,-0.115064 0.275,-0.05645 0.264688,0.04477 0.883438,0.0363 1.375,-0.01881 0.720694,-0.0808 0.82719,-0.121363 0.55,-0.209484 -0.220428,-0.07008 -0.0971,-0.0836 0.34375,-0.03769 0.462147,0.04812 0.625162,0.0282 0.497318,-0.06077 -0.143559,-0.09991 -0.07614,-0.15539 0.275,-0.226318 0.255851,-0.05168 0.588932,-0.124333 0.740182,-0.161453 0.224294,-0.05505 0.23697,-0.04087 0.06875,0.07691 -0.183333,0.128358 -0.183333,0.143563 0,0.136843 0.312601,-0.01145 0.80205,-0.240827 0.55,-0.257746 -0.183333,-0.01231 -0.183333,-0.0266 0,-0.12861 0.330136,-0.183698 1.073263,-0.326158 0.825,-0.158156 -0.446605,0.302222 0.177612,0.12458 1.372674,-0.390639 1.403191,-0.604949 3.033244,-1.513175 3.646076,-2.031506 0.48097,-0.406802 0.307374,-0.317246 -0.81771,0.421854 -0.85965,0.564727 -3.065686,1.644383 -3.65104,1.786855 l -0.34375,0.08367 0.34375,-0.161889 c 2.349171,-1.10635 2.946042,-1.416259 3.7125,-1.927618 0.491562,-0.327956 1.073391,-0.605102 1.292952,-0.615879 0.281067,-0.0138 0.342103,0.01656 0.20625,0.102565 -0.237451,0.150334 1.960097,0.14077 2.557048,-0.01112 0.391018,-0.0995 0.394599,-0.106524 0.06875,-0.134938 l -0.34375,-0.02998 0.34375,-0.110088 c 0.189063,-0.06055 0.436563,-0.115309 0.55,-0.121689 0.183333,-0.01031 0.183333,0.0044 0,0.132802 -0.157315,0.110141 -0.124692,0.121767 0.1375,0.049 0.424618,-0.117843 1.375,-0.590928 1.375,-0.684454 0,-0.03781 -0.245035,0.05626 -0.544522,0.209045 -0.836913,0.426961 -0.85187,0.326905 -0.02225,-0.148831 0.406713,-0.233225 1.007028,-0.699335 1.334035,-1.035799 0.647948,-0.666689 1.570236,-2.365099 1.570236,-2.891615 0,-0.181276 0.09281,-0.365207 0.20625,-0.408737 0.137943,-0.05293 0.205553,-0.267811 0.204145,-0.64881 -0.0012,-0.343123 -0.0463,-0.500028 -0.113237,-0.394558 -0.06485,0.102185 -0.107052,-0.09823 -0.101333,-0.48125 0.0073,-0.488103 -0.113384,-0.903086 -0.470737,-1.618856 -0.264293,-0.529375 -0.554566,-1.148125 -0.64505,-1.375 -0.09411,-0.235969 -0.167838,-0.31155 -0.172277,-0.176608 -0.0043,0.12974 0.208802,0.62988 0.473489,1.111418 0.665573,1.210861 0.606151,1.337064 -0.07817,0.166018 -0.46783,-0.800577 -0.544837,-1.035033 -0.470354,-1.432054 0.06205,-0.330787 0.123843,-0.418471 0.20376,-0.289163 0.153032,0.24761 0.337502,-0.883629 0.341613,-2.094896 0.0017,-0.510283 0.04956,-0.92794 0.106275,-0.928125 0.05672,-1.38e-4 0.103125,-0.340652 0.103125,-0.75659 0,-0.415937 -0.04804,-0.75625 -0.106759,-0.75625 -0.05872,0 -0.08304,-0.248758 -0.05404,-0.552797 0.06545,-0.686275 -0.32553,-3.078387 -0.671614,-4.109125 -0.19128,-0.569692 -0.241498,-0.644446 -0.193521,-0.288078 0.07386,0.548584 -0.104522,0.223473 -0.264046,-0.481251 -0.0681,-0.300862 -0.0556,-0.35668 0.0462,-0.20625 0.225861,0.333766 0.166472,0.06656 -0.20392,-0.917478 -0.356433,-0.946959 -0.584382,-1.345941 -0.418507,-0.732522 0.05112,0.189063 -0.299222,-0.40146 -0.778548,-1.312273 -2.017442,-3.833531 -4.58343,-6.68869 -8.148993,-9.067334 -1.613945,-1.076688 -3.716181,-2.1785413 -5.125168,-2.6862753 -0.474467,-0.170976 -0.835385,-0.338147 -0.80204,-0.371491 0.103143,-0.103144 2.565205,0.91934 3.793873,1.5755803 1.487819,0.794654 3.307595,2.018152 4.576658,3.077045 l 0.994177,0.829531 -0.820861,-0.77339 C 39.803664,12.20608 37.645752,10.71947 36.042701,9.8650563 c -1.550029,-0.8261536 -4.736218,-2.0725756 -4.125,-1.6136806 0.15993,0.120074 0.09817,0.133992 -0.275,0.06198 -0.681167,-0.131454 -1.032904,-0.36857 -0.4125,-0.278079 0.42951,0.06265 0.415788,0.04868 -0.12764,-0.129888 -0.334889,-0.110045 -0.829889,-0.231908 -1.1,-0.270806 l -0.49111,-0.07072 0.55,0.198386 0.55,0.198387 -0.55,-0.0801 c -0.3025,-0.04406 -0.67375,-0.129253 -0.825,-0.189328 -0.275,-0.109228 -0.275,-0.109228 0,-0.134333 0.412581,-0.03767 -1.427997,-0.3913266 -2.0625,-0.3963021 -0.428626,-0.00336 -0.504485,0.028429 -0.34375,0.1440524 0.171533,0.1233917 0.163855,0.1346096 -0.04562,0.066645 -0.138529,-0.044946 -0.312337,-0.081721 -0.386239,-0.081721 -0.0739,0 -0.09613,-0.061875 -0.04939,-0.1375 0.141433,-0.2288419 2.260121,-0.1486591 3.537918,0.1338943 5.698906,1.2601726 10.974745,4.6177877 14.574286,9.2752737 3.442288,4.454012 5.114651,9.850346 4.649018,15.001316 -0.08355,0.924273 -0.213337,1.889246 -0.288413,2.144382 -0.121315,0.41228 -0.07427,0.586251 0.422925,1.563884 1.313019,2.581799 0.97695,5.052717 -0.970343,7.13438 -1.340589,1.433094 -2.772746,2.00937 -4.99367,2.00937 l -1.229251,0 -1.044985,0.669185 c -1.959583,1.254875 -3.954591,2.089465 -6.309685,2.639593 -1.218304,0.284584 -3.258836,0.354885 -3.604051,0.124162 z m 3.746875,-0.499009 c -0.09453,-0.03814 -0.249219,-0.03814 -0.34375,0 -0.09453,0.03814 -0.01719,0.06935 0.171875,0.06935 0.189063,0 0.266406,-0.03121 0.171875,-0.06935 z M 48.58897,41.595793 c 0.333113,-0.480894 0.266773,-0.418216 -0.727668,0.6875 -0.629197,0.699601 -0.652,0.741401 -0.150022,0.275 0.325575,-0.3025 0.720535,-0.735625 0.87769,-0.9625 z m 0.782329,-1.382771 c 0.156147,-0.417338 0.280575,-0.864754 0.276507,-0.994262 -0.0041,-0.129507 -0.116806,0.104846 -0.250533,0.520783 -0.133727,0.415938 -0.322197,0.902935 -0.418824,1.082219 -0.09663,0.179282 -0.111641,0.286387 -0.03337,0.238011 0.07827,-0.04838 0.270073,-0.429414 0.42622,-0.846751 z m -2.7343,-19.710155 c -0.38999,-0.764442 -0.491305,-0.718895 -0.116578,0.05241 0.164531,0.338653 0.32273,0.59215 0.351556,0.563325 0.02882,-0.02882 -0.07692,-0.305905 -0.234978,-0.615735 z m -0.625548,-1.113325 c -0.117322,-0.226875 -0.244249,-0.4125 -0.282062,-0.4125 -0.03781,0 0.02724,0.185625 0.144562,0.4125 0.117322,0.226875 0.24425,0.4125 0.282062,0.4125 0.03781,0 -0.02724,-0.185625 -0.144562,-0.4125 z M 45.43485,18.417477 c -0.710887,-1.207897 -3.494623,-4.527935 -3.796518,-4.527935 -0.0781,0 0.267106,0.417656 0.767129,0.928125 1.029562,1.051071 2.059269,2.316808 2.71092,3.332319 0.481275,0.750001 0.720889,0.95126 0.318469,0.267491 z M 31.67994,47.63147 c 0.04569,-0.04569 0.164284,-0.05057 0.263542,-0.01085 0.109688,0.04389 0.07711,0.07648 -0.08307,0.08307 -0.144947,0.006 -0.226159,-0.02653 -0.180472,-0.07222 z m -5.434114,-0.14549 c 0.09453,-0.03814 0.249219,-0.03814 0.34375,0 0.09453,0.03814 0.01719,0.06935 -0.171875,0.06935 -0.189063,0 -0.266406,-0.03121 -0.171875,-0.06935 z m 17.875,-3.575 c 0.09453,-0.03814 0.249219,-0.03814 0.34375,0 0.09453,0.03814 0.01719,0.06935 -0.171875,0.06935 -0.189062,0 -0.266406,-0.03121 -0.171875,-0.06935 z m 5.207813,-6.938624 c -0.114627,-0.573135 -0.0035,-0.68422 0.120312,-0.120313 0.05221,0.237691 0.06626,0.460826 0.03123,0.495857 -0.03503,0.03503 -0.103224,-0.133965 -0.151542,-0.375544 z m -0.889228,-4.107813 c 0,-0.189062 0.03121,-0.266406 0.06935,-0.171875 0.03814,0.09453 0.03814,0.249219 0,0.34375 -0.03814,0.09453 -0.06935,0.01719 -0.06935,-0.171875 z M 6.4910565,30.057251 c -0.006,-0.144947 0.02653,-0.226159 0.07222,-0.180469 0.04569,0.04569 0.05057,0.164284 0.01086,0.263542 -0.04389,0.109688 -0.07648,0.07711 -0.08308,-0.08307 z m -0.401644,-2.142708 c 0,-0.189062 0.03121,-0.266406 0.06935,-0.171875 0.03814,0.09453 0.03814,0.249219 0,0.34375 -0.03815,0.09453 -0.06935,0.01719 -0.06935,-0.171875 z m 42.3499985,-0.9625 c 0,-0.189062 0.03121,-0.266406 0.06935,-0.171875 0.03814,0.09453 0.03814,0.249219 0,0.34375 -0.03814,0.09453 -0.06935,0.01719 -0.06935,-0.171875 z m -0.286133,-1.385576 c -0.08458,-0.394381 -0.127602,-0.743232 -0.09561,-0.775227 0.032,-0.03199 0.127375,0.264501 0.211954,0.65888 0.08458,0.39438 0.127601,0.743231 0.09561,0.775226 -0.032,0.032 -0.127374,-0.264501 -0.211954,-0.658879 z m -0.820299,-2.754703 c -0.08471,-0.242998 -0.129956,-0.465878 -0.100546,-0.495287 0.02941,-0.02941 0.122781,0.145344 0.20749,0.388343 0.08471,0.242998 0.129956,0.465879 0.100546,0.495287 -0.02941,0.02941 -0.122781,-0.145344 -0.20749,-0.388343 z M 6.0894125,22.277042 c 0,-0.189062 0.03121,-0.266406 0.06935,-0.171875 0.03814,0.09453 0.03814,0.249219 0,0.34375 -0.03815,0.09453 -0.06935,0.01719 -0.06935,-0.171875 z M 21.158326,7.4734797 c 0.09453,-0.038145 0.249219,-0.038145 0.34375,0 0.09453,0.03814 0.01719,0.06935 -0.171875,0.06935 -0.189062,0 -0.266406,-0.03121 -0.171875,-0.06935 z m 7.084114,0.008 c 0.04569,-0.04569 0.164284,-0.050575 0.263542,-0.01086 0.109688,0.04389 0.07711,0.07648 -0.08307,0.08307 -0.144947,0.006 -0.226159,-0.02653 -0.180469,-0.07222 z M 22.395826,7.3359892 c 0.09453,-0.038144 0.249219,-0.038144 0.34375,0 0.09453,0.038144 0.01719,0.069353 -0.171875,0.069353 -0.189063,0 -0.266406,-0.031209 -0.171875,-0.069353 z"
     id="path3082"
     style="fill:#000000;stroke:#000000;stroke-width:1;stroke-miterlimit:4;stroke-opacity:1;stroke-dasharray:none" />
  <path
     d=""
     id="path3080"
     style="fill:#000000" />
  <path
     d=""
     id="path3078"
     style="fill:#000000" />
</svg>
