<?xml version="1.0" encoding="UTF-8" standalone="no"?>
<!-- Created with Inkscape (http://www.inkscape.org/) -->

<svg
   xmlns:dc="http://purl.org/dc/elements/1.1/"
   xmlns:cc="http://creativecommons.org/ns#"
   xmlns:rdf="http://www.w3.org/1999/02/22-rdf-syntax-ns#"
   xmlns:svg="http://www.w3.org/2000/svg"
   xmlns="http://www.w3.org/2000/svg"
   version="1.1"
   width="55"
   height="55"
   id="svg2">
  <metadata
     id="metadata9">
    <rdf:RDF>
      <cc:Work
         rdf:about="">
        <dc:format>image/svg+xml</dc:format>
        <dc:type
           rdf:resource="http://purl.org/dc/dcmitype/StillImage" />
        <dc:title></dc:title>
      </cc:Work>
    </rdf:RDF>
  </metadata>
  <defs
     id="defs10" />
  <g
     transform="matrix(0.15517161,0,0,0.15517161,0.57650456,7.5462324)"
     id="g3793"
     style="stroke-width:7.73337317;stroke-miterlimit:4;stroke-dasharray:none">
    <path
       d="m 12.492955,169.42623 c 25.131531,-12.0997 90.578215,-9.41548 121.769345,-10.65574 35.7774,-1.42262 74.27633,-1.53204 103.45863,-22.27907 17.47887,-12.42653 49.56887,-47.453631 57.49199,-77.033651 3.98997,-14.896083 -1.62928,-24.252959 -5.37685,-39.211867 -5.14351,-20.53101132 20.52399,-19.25153267 30.09941,-16.540888 8.60686,2.4364619 -3.58452,20.898015 -2.70683,25.445215 2.97854,15.431491 2.48825,29.169798 6.70578,35.849771 3.88508,6.153427 15.28106,6.64746 17.70444,15.622279 9.55187,35.374641 -10.40811,80.200091 -30.90164,110.574731 -21.02806,31.16688 -78.24059,55.29145 -123.55758,63.16279 C 168.60762,257.58566 60.238798,247.85106 39.426229,234.42623 31.67892,229.42895 18.578606,212.81151 10.196434,203.16326 1.9604627,193.6833 1.1781426,174.8738 12.492955,169.42623 z"
       id="path2987"
       style="fill:#eeeeee;fill-opacity:1;stroke:#000000;stroke-width:7.73337317;stroke-linecap:butt;stroke-linejoin:miter;stroke-miterlimit:4;stroke-opacity:1;stroke-dasharray:none" />
    <path
       d="m 289.21856,18.560959 c 1.40774,3.272105 11.33615,0.540011 14.74048,-0.508292 5.88758,-1.812975 16.98934,-3.62167 15.75708,-9.6575619 -0.92505,-4.5311003 -13.89293,-5.472511 -18.29853,-4.0663417 -5.59369,1.7853818 -14.51954,8.8384826 -12.19903,14.2321956 z"
       id="path3759"
       style="fill:#000000;fill-opacity:1;stroke:#000000;stroke-width:7.73337317;stroke-linecap:butt;stroke-linejoin:miter;stroke-miterlimit:4;stroke-opacity:1;stroke-dasharray:none" />
    <path
       d="m 14.232196,183.2478 c -0.550401,4.44234 -2.357001,13.09359 -6.6078052,11.69073 -7.8629093,-2.59494 -5.2085859,-24.05314 3.0497562,-24.65219 4.468577,-0.32415 4.108942,8.51514 3.558049,12.96146 z"
       id="path3757"
       style="fill:#000000;fill-opacity:1;stroke:#000000;stroke-width:7.73337317;stroke-linecap:butt;stroke-linejoin:miter;stroke-miterlimit:4;stroke-opacity:1;stroke-dasharray:none" />
    <path
       d="m 12.492955,169.42623 c 25.131531,-12.0997 90.578215,-9.41548 121.769345,-10.65574 35.7774,-1.42262 74.27633,-1.53204 103.45863,-22.27907 17.47887,-12.42653 49.56887,-47.453629 57.49199,-77.033649 3.98997,-14.89608 -1.62928,-24.25296 -5.37685,-39.21187 -5.14351,-20.53100972 20.52399,-19.25152972 30.09941,-16.5408897 8.60686,2.43647 -3.58452,20.8980197 -2.70683,25.4452197 2.97854,15.43149 2.48825,29.1698 6.70578,35.84977 3.88508,6.15343 15.28106,6.64746 17.70444,15.62228 9.55187,35.374639 -10.40811,80.200089 -30.90164,110.574729 -21.02806,31.16688 -78.24059,55.29145 -123.55758,63.16279 C 168.60762,257.58566 60.238798,247.85106 39.426229,234.42623 31.67892,229.42895 18.578606,212.81151 10.196434,203.16326 1.9604625,193.6833 1.1781425,174.8738 12.492955,169.42623 z"
       id="path2987-2"
       style="fill:none;stroke:#000000;stroke-width:7.73337317;stroke-linecap:butt;stroke-linejoin:miter;stroke-miterlimit:4;stroke-opacity:1;stroke-dasharray:none" />
  </g>
  <path
     d="m 41.363406,29.174405 c -1.10877,0 -2.018763,0.909992 -2.018763,2.018761 l 0,4.629689 -3.283849,-3.283849 c -0.784855,-0.783184 -2.043082,-0.78485 -2.826264,0 -0.783183,0.784854 -0.784823,2.069998 0,2.85318 l 3.310766,3.28385 -4.683521,0 c -1.10877,0 -2.018762,0.909991 -2.018762,2.018762 0,1.108769 0.909992,1.991843 2.018762,1.991843 l 4.656605,0 -3.28385,3.283849 c -0.783181,0.784854 -0.784823,2.069999 0,2.85318 0.784855,0.783182 2.07,0.757938 2.85318,-0.02692 l 3.256933,-3.283849 0,4.683524 c 0,1.10877 0.909993,1.991844 2.018763,1.991844 1.108769,0 1.991843,-0.883074 1.991843,-1.991844 l 0,-4.71044 3.337683,3.310765 c 0.784853,0.783182 2.043082,0.784855 2.826262,0 0.783182,-0.784853 0.784858,-2.043082 0,-2.826262 l -3.310765,-3.28385 4.656607,0 c 1.10877,0 1.991844,-0.883074 1.991844,-1.991843 0,-1.108771 -0.883074,-2.018763 -1.991844,-2.018763 l -4.683523,0 3.310765,-3.337683 c 0.783182,-0.784854 0.784857,-2.016165 0,-2.799347 -0.784854,-0.78318 -2.043082,-0.811775 -2.826263,-0.02691 l -3.310766,3.337682 0,-4.656604 c 0,-1.10877 -0.883074,-2.018763 -1.991843,-2.018763 z"
     id="rect3894"
     style="fill:#ffffff;fill-opacity:1;stroke:#282828;stroke-width:1.72267997;stroke-linecap:round;stroke-linejoin:round;stroke-miterlimit:4;stroke-opacity:1;stroke-dasharray:none" />
</svg>
